<svg xmlns="http://www.w3.org/2000/svg" width="448" height="337.877" viewBox="0 0 448 337.877">
    <defs>
        <clipPath id="7w8457myea">
            <path fill="none" d="M0 0H448V337.877H0z"/>
        </clipPath>
    </defs>
    <g clip-path="url(#7w8457myea)">
        <path fill="#fff" d="M401.7 52.564A164.559 164.559 0 0 0 279.687.005a169.564 169.564 0 0 0-120.133 50.681h-16.269A143.91 143.91 0 0 0 0 193.343a147.665 147.665 0 0 0 40.045 100.112 140.156 140.156 0 0 0 103.24 44.425h136.4A168.938 168.938 0 0 0 448 168.315a172.067 172.067 0 0 0-46.3-115.751M140.156 314.106a119.509 119.509 0 0 1-.625-239.017 118.279 118.279 0 0 1 79.489 30.683l.6-.023 49.43 51.311a21.274 21.274 0 0 1-30.659 29.407l-48.8-50.681a76.335 76.335 0 0 0-125.77 57.557 78.217 78.217 0 0 0 77.586 77.586h10.011C165.184 290.325 204.6 314.1 204.6 314.1zM384.8 270.932a141.409 141.409 0 0 1-101.989 43.8A147.664 147.664 0 0 1 180.2 269.681l-65.7-65.073a21.236 21.236 0 1 1 30.031-30.034l65.7 65.077a105.118 105.118 0 0 0 72.581 32.536 98.86 98.86 0 0 0 71.959-31.287 105.744 105.744 0 0 0 30.029-73.829A101.989 101.989 0 0 0 282.19 65.7a91.352 91.352 0 0 0-56.313 16.269l-10.011-6.256-9.385-5.631-17.52-8.134-3.754-1.248a138.9 138.9 0 0 1 96.983-37.544 145.162 145.162 0 0 1 144.533 144.533 148.29 148.29 0 0 1-41.923 103.24z" transform="translate(0 -.005)"/>
    </g>
</svg>
